<svg width="200" height="93" viewBox="0 0 200 93" xmlns="http://www.w3.org/2000/svg">
<path fill-rule="evenodd" clip-rule="evenodd" d="M199.131 50.2638C200.821 46.6222 200.031 42.1591 196.892 39.3325L156.757 3.19459C152.902 -0.276437 146.963 0.0348048 143.492 3.88977C140.021 7.74474 140.332 13.6836 144.187 17.1547L176.725 46.4514L143.992 75.9243C140.137 79.3954 139.825 85.3342 143.296 89.1892C146.767 93.0442 152.706 93.3554 156.561 89.8844L196.697 53.7465C197.801 52.7524 198.614 51.5559 199.131 50.2638ZM23.2754 46.3684L55.8127 17.0716C59.6676 13.6006 59.9789 7.66173 56.5079 3.80676C53.0368 -0.0482011 47.0979 -0.359443 43.243 3.11158L3.10779 39.2495C-0.0314579 42.0761 -0.820695 46.5392 0.868903 50.1808C1.38601 51.4729 2.1994 52.6694 3.30347 53.6635L43.4387 89.8014C47.2936 93.2724 53.2325 92.9612 56.7035 89.1062C60.1746 85.2512 59.8633 79.3124 56.0084 75.8413L23.2754 46.3684Z"/>
</svg>
