<svg width="200" height="149" viewBox="0 0 200 149" xmlns="http://www.w3.org/2000/svg">
<path fill-rule="evenodd" clip-rule="evenodd" d="M199.131 78.2639C200.821 74.6223 200.031 70.1591 196.892 67.3325L156.757 31.1946C152.902 27.7236 146.963 28.0349 143.492 31.8898C140.021 35.7448 140.332 41.6837 144.187 45.1547L176.725 74.4514L143.992 103.924C140.137 107.395 139.825 113.334 143.296 117.189C146.767 121.044 152.706 121.355 156.561 117.884L196.697 81.7465C197.801 80.7524 198.614 79.5559 199.131 78.2639V78.2639ZM23.2754 74.3684L55.8127 45.0717C59.6676 41.6007 59.9789 35.6618 56.5079 31.8068C53.0368 27.9518 47.0979 27.6406 43.243 31.1116L3.10779 67.2495C-0.0314578 70.0761 -0.820695 74.5393 0.868903 78.1809C1.38601 79.4729 2.1994 80.6694 3.30347 81.6636L43.4387 117.801C47.2936 121.272 53.2325 120.961 56.7035 117.106C60.1746 113.251 59.8633 107.312 56.0084 103.841L23.2754 74.3684ZM126.896 0.568997C131.77 2.34318 134.284 7.73303 132.51 12.6076L85.126 142.793C83.3518 147.667 77.9619 150.181 73.0874 148.407C68.2129 146.632 65.6995 141.242 67.4737 136.368L114.857 6.18267C116.631 1.30814 122.021 -1.20519 126.896 0.568997Z" />
</svg>
