<svg width="44" height="44" viewBox="0 0 44 44" xmlns="http://www.w3.org/2000/svg">
<path fill-rule="evenodd" clip-rule="evenodd" d="M21.6 25.6029L17.5905 21.5999L21.6 17.5971L25.6097 21.5999L21.6 25.6029ZM16.8668 21.5999L21.6 26.3256L26.3332 21.5999L21.6 16.8744L16.8668 21.5999ZM28.0562 19.2823L23.886 15.1189V8.19265L25.4946 9.78043V14.4537L28.7227 17.6763H40.9735L42.4906 19.2823H28.0562ZM37.3867 22.0544C37.2945 25.427 36.1416 28.6239 34.0535 31.2997C31.9941 33.9381 29.2221 35.8193 26.0308 36.7456V28.968L28.9447 26.059H33.6274L35.7125 23.9532L33.5527 21.7764H27.1679L21.7412 27.1941V37.3698C21.5351 37.3717 21.3576 37.3703 21.1884 37.3658C17.8058 37.2734 14.6047 36.1271 11.9307 34.05C9.29595 32.0035 7.41335 29.2424 6.48089 26.059H14.2553L17.1692 28.968V33.6432L19.2784 35.7249L21.4588 33.5686V27.1943L16.0323 21.7764H5.84907C5.8471 21.5987 5.84639 21.3977 5.85211 21.194C5.94398 17.8335 7.09324 14.6435 9.17513 11.9687C11.2286 9.33057 13.9906 7.44658 17.1692 6.51475V14.2318L14.2553 17.141H9.57263L7.48752 19.2466L9.64734 21.4236H16.0321L21.4588 16.0059V5.87843C21.6719 5.87575 21.8665 5.87736 22.0506 5.88253C25.4187 5.97443 28.6117 7.11646 31.2847 9.18514C33.9183 11.2237 35.8045 13.9727 36.7443 17.141H28.9447L26.0308 14.2318V9.55684L23.9216 7.47513L21.7412 9.63143V16.0057L27.1677 21.4236H37.3903C37.3931 21.6536 37.392 21.8608 37.3867 22.0544ZM25.4946 28.7463V40.9771L23.886 42.4918V28.0811L28.0562 23.9177H34.9938L33.4034 25.5237H28.7227L25.4946 28.7463ZM2.22649 25.5237L0.709395 23.9177H15.1438L19.314 28.0811V35.0072L17.7054 33.4196V28.7463L14.4773 25.5237H2.22649ZM17.7054 14.4537V2.22286L19.314 0.707881V15.1189L15.1438 19.2823H8.20621L9.79659 17.6763H14.4773L17.7054 14.4537ZM41.205 17.141H37.8567C36.8977 13.6712 34.8864 10.6551 32.0372 8.4157C29.1642 6.15769 25.7212 4.91163 22.0799 4.81223C21.8867 4.80706 21.6831 4.80545 21.4588 4.80777V2.06868L19.4682 0.194681L19.2843 0L17.1692 1.99177V5.40252C10.0724 7.34112 4.98132 13.8129 4.78006 21.1647C4.77488 21.3553 4.77327 21.5562 4.77541 21.7764H2.07224L0.195177 23.7635L0 23.9473L1.99503 26.059H5.36863C6.31985 29.544 8.32739 32.5722 11.1775 34.8193C14.0515 37.0858 17.5031 38.3362 21.1591 38.4361C21.3342 38.4409 21.5208 38.4422 21.7412 38.4404V41.1311L23.7318 43.0051L23.9157 43.2L26.0308 41.2082V37.8562C33.15 35.9301 38.2569 29.4542 38.4587 22.0838C38.4643 21.8829 38.4655 21.6713 38.4625 21.4236H41.1278L43.0048 19.4363L43.2 19.2527L41.205 17.141Z" />
</svg>
